***************************************************************
 
http://www.torrentforce.org/imghost/3/greyshadow_tfbanner.png

***************************************************************
 
http://www.torrentforce.org/imghost/4/greyshadow_greenlantern.jpg

***************************************************************

FILM TITLE: Green Lantern (2011)

***************************************************************

Genre: Action | Adventure | Fantasy   

Rated PG-13 for intense sequences of sci-fi violence and action

Release: 17 June 2011 (UK)

Director: Martin Campbell

Writer: Greg Berlanti (screenplay), Michael Green

Stars: Ryan Reynolds, Blake Lively and Peter Sarsgaard

Country: USA

Language: English

Plot:
A test pilot is granted a mystical green ring that bestows him 
with otherworldly powers, as well as membership into an 
intergalactic squadron tasked with keeping peace within the universe.

IMDB Rating: 6.1/10 from 33,384 users
 
http://www.imdb.com/title/tt1133985/  

****************************************************************
 
http://www.torrentforce.org/imghost/4/greyshadow_greenlanternx2641.png 
http://www.torrentforce.org/imghost/4/greyshadow_greenlanternx2642.png 
http://www.torrentforce.org/imghost/4/greyshadow_greenlanternx2643.png 
http://www.torrentforce.org/imghost/4/greyshadow_greenlanternx2644.png

****************************************************************

[IMG]http://www.torrentforce.org/imghost/2/greyshadow_mediainfo.png[/IMG]
General
Complete name                    : Green Lantern 2011 720p BDRip x264 aac (mp4) [TFRG].mp4
Format                           : MPEG-4
Format profile                   : Base Media
Codec ID                         : isom
File size                        : 3.15 GiB
Duration                         : 2h 3mn
Overall bit rate                 : 3652 Kbps
Encoded date                     : UTC 2011-10-05 00:13:26
Tagged date                      : UTC 2011-10-05 00:13:26

Video
ID                               : 1
Format                           : AVC
Format/Info                      : Advanced Video Codec
Format profile                   : High@L4.1
Format settings, CABAC           : Yes
Format settings, ReFrames        : 12 frames
Codec ID                         : avc1
Codec ID/Info                    : Advanced Video Coding
Duration                         : 2h 3mn
Bit rate                         : 3200 Kbps
Maximum bit rate                 : 24.3 Mbps
Width                            : 1280 pixels
Height                           : 528 pixels
Display aspect ratio             : 2.40:1
Frame rate mode                  : Constant
Frame rate                       : 23.976 fps
Color space                      : YUV
Chroma subsampling               : 4:2:0
Bit depth                        : 8 bits
Scan type                        : Progressive
Bits/(Pixel*Frame)               : 0.197
Stream size                      : 2.76 GiB (88%)
Title                            : AVC MPEG4 Video
Writing library                  : x264 core 118 r2085 8a62835
Encoded date                     : UTC 2011-10-04 07:52:21
Tagged date                      : UTC 2011-10-05 00:14:29
Color primaries                  : BT.709-5, BT.1361, IEC 61966-2-4, SMPTE RP177
Transfer characteristics         : BT.709-5, BT.1361
Matrix coefficients              : BT.709-5, BT.1361, IEC 61966-2-4 709, SMPTE RP177

Audio
ID                               : 2
Format                           : AAC
Format/Info                      : Advanced Audio Codec
Format profile                   : LC
Codec ID                         : 40
Duration                         : 2h 3mn
Bit rate mode                    : Variable
Bit rate                         : 449 Kbps
Maximum bit rate                 : 460 Kbps
Channel(s)                       : 6 channels
Channel positions                : Front: L C R, Side: L R, LFE
Sampling rate                    : 48.0 KHz
Compression mode                 : Lossy
Stream size                      : 397 MiB (12%)
Title                            : AAC 5.1 Audio
Language                         : English
Encoded date                     : UTC 2011-10-05 00:14:22
Tagged date                      : UTC 2011-10-05 00:14:29

Subtitles: External File, English/French/Portuguese/Spanish

****************************************************************

Video Source: Green Lantern 2011 EXTENDED 2in1 BluRay 1080p AVC DTS-HD MA5.1-CHDBits (43.2GB)

Thanks: CHP (chdbits.org)

****************************************************************

I provide a small sample, so please download this to check your 
compatibility first if you are unsure.

****************************************************************

A big thanks to all the sites out there who care and share and
who make it possible for you to download this torrent for free.

Greetz to Westy, Ripwyn, mustang, noir, Blackjesus, MXMG, The Stig 
and all the other outstanding members of our community of file 
sharers and a special mention to our friends at 1337x.

****************************************************************